<svg version="1.2" xmlns="http://www.w3.org/2000/svg" viewBox="0 0 917 272" width="917" height="272">
	<style>
		.s0 { opacity: .97;fill: #010101 } 
	</style>
	<path id="Path 0" fill-rule="evenodd" class="s0" d="m612 38.07c5.23-0.08 7.56 0.44 11.94 2.67 3.52 1.79 6.34 4.14 8 6.69 2 3.06 2.55 5.15 2.51 9.5-0.04 3.69-0.8 7-2.25 9.82-1.3 2.5-3.95 5.38-6.45 7-3.92 2.54-5.03 2.75-14.32 2.75-9.11 0-10.42-0.24-13.7-2.5-2-1.38-4.78-4.3-6.19-6.5-1.93-3.01-2.56-5.31-2.55-9.25 0-3.23 0.78-6.79 2.01-9.25 1.1-2.2 3.46-5.07 5.25-6.37 1.79-1.31 4.6-2.85 6.25-3.42 1.65-0.58 5.92-1.09 9.5-1.14zm-217.33 11.93c6.78 0 12.34 0.34 12.34 0.75 0.01 0.41-1.14 18.07-2.55 39.25-1.41 21.18-2.3 38.72-1.99 39 0.32 0.28 5.18-1.39 10.8-3.71 5.63-2.32 10.34-4.12 10.47-4 0.13 0.12-0.51 16.64-1.42 36.71-1.01 22.24-2.08 37.01-2.74 37.81-0.83 1.01-5.07 1.24-36.08 0.69l-0.25-4.25c-0.14-2.34-0.48-4.25-0.75-4.25-0.27 0-2.86 1.6-5.75 3.56-2.89 1.96-7.5 4.22-10.25 5.02-2.75 0.8-7.93 1.72-11.5 2.03-4.21 0.37-9.15 0.02-14-1-4.12-0.87-10.65-3.12-14.5-5-4.99-2.43-8.69-5.23-12.89-9.76-3.24-3.49-7.18-8.94-8.75-12.1-1.57-3.16-3.65-8.46-6.36-17.79l-34.75 0.02c-22.49 0.01-34.75 0.37-34.75 1.02 0 0.55 0.62 2.24 1.37 3.75 0.76 1.51 3.01 4.21 5 6 2.14 1.91 6 3.92 9.38 4.88 4.03 1.15 7.99 1.49 13.25 1.13 4.96-0.33 9.02-1.27 12-2.76 2.48-1.24 5.63-3.09 9.5-5.96l20 20.11-3.5 3.5c-1.93 1.93-7.1 5.23-11.5 7.35-4.4 2.11-10.7 4.38-14 5.06-3.3 0.67-10.95 1.21-17 1.21-6.48-0.01-14.08-0.69-18.5-1.66-4.12-0.9-10.87-3.31-15-5.36-5.1-2.53-9.58-5.8-14-10.23-4.14-4.15-7.65-8.88-9.65-13.02-1.74-3.57-3.54-7.4-4-8.5-0.51-1.21-0.95 5.85-1.35 37.5l-35.5-0.5-0.25-35.75c-0.14-19.66-0.59-35.74-1-35.73-0.41 0.01-8.51 13.06-35.25 57.98l-17.5 0.09-10-16.06c-5.5-8.83-13.37-21.52-25-40.34l-0.5 70.31h-37l0.5-138.5 15.5-0.3c13.89-0.27 15.67-0.11 17.1 1.5 0.88 0.99 12.13 19.06 25 40.15 20.93 34.29 23.54 38.15 24.7 36.5 0.71-1.02 6.79-11.07 13.5-22.35 6.7-11.28 16.92-28.38 33.2-55.5h32l0.5 35.5c0.45 31.72 0.65 35.07 1.87 31.5 0.75-2.2 2.63-6.25 4.17-9 1.54-2.75 4.56-7.03 6.72-9.5 2.16-2.47 6.81-6.4 10.33-8.72 3.53-2.31 9.79-5.43 13.91-6.91 6.68-2.41 8.97-2.71 21-2.79 11.82-0.07 14.37 0.22 20.5 2.34 3.85 1.33 9.25 3.73 12 5.33 2.75 1.61 7.16 5.02 9.8 7.59 2.64 2.56 6.13 6.8 7.75 9.41 1.62 2.61 3.29 4.75 3.7 4.75 0.41 0 1.88-2.13 3.25-4.74 1.38-2.6 5.09-7.33 8.25-10.5 3.76-3.77 8.26-6.96 13-9.23 3.99-1.91 9.95-3.98 13.25-4.61 3.3-0.63 9.82-0.92 14.5-0.65 4.68 0.27 10.52 1.3 13 2.28 2.48 0.99 6.41 3.07 13 7.45l-0.17-23.33c-0.09-12.84 0.21-23.64 0.67-24 0.46-0.37 6.38-0.67 13.17-0.67zm-159.1 69.25c-2.16 1.79-4.74 5.05-5.73 7.25-0.99 2.2-1.81 4.56-1.82 5.25-0.01 0.96 4.93 1.25 21.48 1.25 20.83 0 21.5-0.06 21.5-2 0-1.1-0.62-3.24-1.38-4.75-0.76-1.51-3.12-4.36-5.25-6.33-2.65-2.45-5.52-3.95-9.12-4.75-2.89-0.64-5.81-1.12-6.5-1.06-0.69 0.06-3.05 0.51-5.25 1-2.2 0.49-5.77 2.35-7.93 4.14zm109.68 3.32c-1.79 1.33-4.2 4.34-5.37 6.68-1.17 2.34-2.35 6.5-2.63 9.25-0.28 2.75-0.23 7.47 0.12 10.5 0.41 3.57 1.66 7.08 3.55 10 1.6 2.47 4.64 5.5 6.75 6.73 2.11 1.22 6.08 2.51 8.83 2.85 2.9 0.37 6.89 0.12 9.5-0.58 2.91-0.79 5.97-2.69 8.64-5.36 3.02-3.02 4.62-5.77 5.88-10.14 1.24-4.29 1.58-7.85 1.17-12.5-0.35-3.91-1.51-8.29-2.93-11-1.51-2.9-4.11-5.67-7.3-7.79-4.4-2.91-5.7-3.27-11.46-3.18-3.57 0.05-7.63 0.55-9 1.1-1.38 0.55-3.96 2.1-5.75 3.44zm484.75-72.57l36.5-0.04 0.75 4.02c0.41 2.21 0.75 34.62 0.75 72.02 0 37.4-0.23 68.68-0.5 69.5-0.42 1.26-3.33 1.5-35.5 1.5v-4.5c0-2.47-0.45-4.5-1-4.5-0.55 0-3.14 1.61-5.75 3.58-2.61 1.97-7.23 4.32-10.25 5.22-3.45 1.03-9.04 1.64-15 1.62-6.84-0.01-11.46-0.62-16.5-2.16-3.85-1.19-9.7-3.89-13-6.02-3.3-2.13-7.8-5.9-10-8.38-2.2-2.48-5.35-7.06-10-15.85l-1 30.49-37.5 0.5-0.5-64.5-2.61-4.5c-1.64-2.83-3.96-5.15-6.25-6.25-2.11-1.01-5.96-1.75-9.14-1.75-3.43 0-6.91 0.72-9.25 1.9-2.06 1.05-4.72 2.96-5.9 4.25-1.19 1.29-2.97 4.15-3.97 6.35-1.6 3.53-1.85 7.55-2.38 64.5h-37v-53.5c0-34.23 0.35-53.59 0.98-53.75 0.54-0.14 8.53-0.03 34.52 0.75l0.25 4.75c0.14 2.61 0.48 4.75 0.75 4.75 0.27 0 2.64-1.5 5.25-3.33 2.61-1.84 7.23-4.42 10.25-5.74 4.86-2.13 6.95-2.41 18-2.38 10.83 0.02 13.3 0.35 18.5 2.43 3.3 1.32 8.25 4.25 11 6.51 2.75 2.26 6.46 6.56 8.25 9.56 1.79 3 3.82 7.82 4.5 10.72 0.69 2.9 1.48 5.26 1.75 5.25 0.27-0.02 1.85-2.82 3.5-6.24 1.65-3.42 5.75-9.16 9.11-12.75 4.01-4.29 8.31-7.64 12.5-9.77 3.52-1.78 9.31-3.97 12.89-4.87 4.71-1.18 9.11-1.5 16-1.13 6.73 0.35 10.96 1.14 14.5 2.69 2.75 1.21 6.46 3.29 8.25 4.62 1.79 1.34 3.48 2.43 3.75 2.43 0.27 0 0.5-10.8 0.5-24zm-36.32 72.87c-2.19 1.51-4.74 4.54-5.98 7.13-1.64 3.43-2.16 6.4-2.18 12.5-0.01 5.13 0.59 9.62 1.67 12.5 0.93 2.48 3.52 6.19 5.75 8.25 2.3 2.12 5.9 4.23 8.31 4.86 2.34 0.61 6.5 0.82 9.25 0.47 2.75-0.34 6.71-1.63 8.81-2.85 2.09-1.23 4.9-3.8 6.23-5.73 1.34-1.93 2.88-5.07 3.44-7 0.56-1.93 1.01-6.65 1-10.5-0.02-4.87-0.64-8.37-2.06-11.5-1.13-2.47-3.03-5.56-4.23-6.85-1.21-1.29-3.88-3.2-5.94-4.25-2.53-1.28-5.79-1.89-10-1.87-3.44 0.02-7.15 0.52-8.25 1.12-1.1 0.6-3.72 2.27-5.82 3.72zm-336.2-64.37l24.01 39.27c13.21 21.59 24.46 39.25 25.01 39.23 0.55-0.02 11.35-17.41 24-38.65 12.65-21.23 23.34-38.77 23.75-38.98 0.41-0.2 7.39-0.58 15.5-0.83 10.74-0.34 15.1-0.14 16.04 0.75 1.04 0.97 1.29 14.85 1.21 137.71h-36v-35.5c0-27.9-0.27-35.43-1.25-35.18-0.69 0.17-8.9 13.01-35.25 56.71l-17.5-0.03-9.69-15.75c-5.33-8.66-12.87-20.88-16.75-27.15-3.88-6.28-7.62-11.56-8.31-11.75-0.98-0.28-1.25 7.03-1.25 68.65h-18.5c-13.83 0-18.64-0.32-19.06-1.25-0.31-0.69 6.21-25.1 14.48-54.25 8.27-29.15 14.82-53.11 14.56-53.25-0.26-0.14-4.53 1.21-9.47 3-4.95 1.79-9.33 2.88-9.75 2.44-0.42-0.45 0.72-8.42 2.53-17.7 1.81-9.29 3.58-17.15 3.95-17.47 0.36-0.33 4.51-0.46 17.74-0.02zm153.72 31.22c9.52 0.16 17.86 0.3 18.55 0.29 0.98-0.01 1.25 11.35 1.25 106.99h-38l-0.17-53.33c-0.09-29.34 0.12-53.54 0.46-53.8 0.34-0.25 8.4-0.32 17.91-0.15z"/>
</svg>